<?xml version="1.0" encoding="UTF-8"?>
<!DOCTYPE svg PUBLIC "-//W3C//DTD SVG 1.1//EN" "http://www.w3.org/Graphics/SVG/1.1/DTD/svg11.dtd">
<svg xmlns="http://www.w3.org/2000/svg" version="1.1" width="20px" height="20px" style="shape-rendering:geometricPrecision; text-rendering:geometricPrecision; image-rendering:optimizeQuality; fill-rule:evenodd; clip-rule:evenodd" xmlns:xlink="http://www.w3.org/1999/xlink">
<g><path style="opacity:1" fill="#dcdcdc" d="M -0.5,-0.5 C 0.5,-0.5 1.5,-0.5 2.5,-0.5C 1.83333,0.833333 0.833333,1.83333 -0.5,2.5C -0.5,1.5 -0.5,0.5 -0.5,-0.5 Z"/></g>
<g><path style="opacity:1" fill="#dbdbdb" d="M 16.5,-0.5 C 17.5,-0.5 18.5,-0.5 19.5,-0.5C 19.5,0.5 19.5,1.5 19.5,2.5C 18.1667,1.83333 17.1667,0.833333 16.5,-0.5 Z"/></g>
<g><path style="opacity:1" fill="#171717" d="M 2.5,-0.5 C 6.83333,-0.5 11.1667,-0.5 15.5,-0.5C 11.8333,0.166667 8.16667,0.833333 4.5,1.5C 3.50838,1.32842 2.84171,1.66175 2.5,2.5C 1.16667,7.16667 1.16667,11.8333 2.5,16.5C 2.84171,17.3382 3.50838,17.6716 4.5,17.5C 7.83333,18.1667 11.1667,18.8333 14.5,19.5C 10.5,19.5 6.5,19.5 2.5,19.5C 1.83333,18.1667 0.833333,17.1667 -0.5,16.5C -0.5,11.8333 -0.5,7.16667 -0.5,2.5C 0.833333,1.83333 1.83333,0.833333 2.5,-0.5 Z"/></g>
<g><path style="opacity:1" fill="#e3e3e3" d="M 2.5,2.5 C 2.84171,1.66175 3.50838,1.32842 4.5,1.5C 8.16667,1.5 11.8333,1.5 15.5,1.5C 12.5983,3.60498 12.9316,4.93832 16.5,5.5C 16.5979,7.55292 15.9313,9.21959 14.5,10.5C 14.8063,6.30288 12.8063,4.30288 8.5,4.5C 8.91753,3.77842 9.5842,3.27842 10.5,3C 7.85397,2.50258 5.1873,2.33591 2.5,2.5 Z"/></g>
<g><path style="opacity:1" fill="#313131" d="M 15.5,-0.5 C 15.8333,-0.5 16.1667,-0.5 16.5,-0.5C 17.1667,0.833333 18.1667,1.83333 19.5,2.5C 19.5,2.83333 19.5,3.16667 19.5,3.5C 18.8333,7.16667 18.1667,10.8333 17.5,14.5C 17.5,10.8333 17.5,7.16667 17.5,3.5C 17.1667,2.5 16.5,1.83333 15.5,1.5C 11.8333,1.5 8.16667,1.5 4.5,1.5C 8.16667,0.833333 11.8333,0.166667 15.5,-0.5 Z"/></g>
<g><path style="opacity:1" fill="#ededed" d="M 2.5,2.5 C 5.1873,2.33591 7.85397,2.50258 10.5,3C 9.5842,3.27842 8.91753,3.77842 8.5,4.5C 5.22441,5.12155 3.89108,7.12155 4.5,10.5C 3.77842,10.0825 3.27842,9.4158 3,8.5C 2.50258,11.146 2.33591,13.8127 2.5,16.5C 1.16667,11.8333 1.16667,7.16667 2.5,2.5 Z"/></g>
<g><path style="opacity:1" fill="#757575" d="M 15.5,1.5 C 16.5,1.83333 17.1667,2.5 17.5,3.5C 16.6618,3.84171 16.3284,4.50838 16.5,5.5C 12.9316,4.93832 12.5983,3.60498 15.5,1.5 Z"/></g>
<g><path style="opacity:1" fill="#f2f2f2" d="M 4.5,10.5 C 4.95681,12.7727 6.29014,14.106 8.5,14.5C 8.91753,15.2216 9.5842,15.7216 10.5,16C 7.85397,16.4974 5.1873,16.6641 2.5,16.5C 2.33591,13.8127 2.50258,11.146 3,8.5C 3.27842,9.4158 3.77842,10.0825 4.5,10.5 Z"/></g>
<g><path style="opacity:1" fill="#2e2e2e" d="M 8.5,4.5 C 12.8063,4.30288 14.8063,6.30288 14.5,10.5C 13.5353,13.3197 11.5353,14.6531 8.5,14.5C 6.29014,14.106 4.95681,12.7727 4.5,10.5C 3.89108,7.12155 5.22441,5.12155 8.5,4.5 Z"/></g>
<g><path style="opacity:1" fill="#eeeeee" d="M 7.5,6.5 C 12.1585,6.01463 13.4919,7.84796 11.5,12C 6.72816,12.8104 5.39483,10.9771 7.5,6.5 Z"/></g>
<g><path style="opacity:1" fill="#e8e8e8" d="M 17.5,3.5 C 17.5,7.16667 17.5,10.8333 17.5,14.5C 17.5858,15.4959 17.2524,16.3292 16.5,17C 12.5138,17.4988 8.51383,17.6655 4.5,17.5C 3.50838,17.6716 2.84171,17.3382 2.5,16.5C 5.1873,16.6641 7.85397,16.4974 10.5,16C 9.5842,15.7216 8.91753,15.2216 8.5,14.5C 11.5353,14.6531 13.5353,13.3197 14.5,10.5C 15.9313,9.21959 16.5979,7.55292 16.5,5.5C 16.3284,4.50838 16.6618,3.84171 17.5,3.5 Z"/></g>
<g><path style="opacity:1" fill="#202020" d="M 19.5,3.5 C 19.5,7.83333 19.5,12.1667 19.5,16.5C 18.1667,17.1667 17.1667,18.1667 16.5,19.5C 15.8333,19.5 15.1667,19.5 14.5,19.5C 11.1667,18.8333 7.83333,18.1667 4.5,17.5C 8.51383,17.6655 12.5138,17.4988 16.5,17C 17.2524,16.3292 17.5858,15.4959 17.5,14.5C 18.1667,10.8333 18.8333,7.16667 19.5,3.5 Z"/></g>
<g><path style="opacity:1" fill="#dbdbdb" d="M -0.5,16.5 C 0.833333,17.1667 1.83333,18.1667 2.5,19.5C 1.5,19.5 0.5,19.5 -0.5,19.5C -0.5,18.5 -0.5,17.5 -0.5,16.5 Z"/></g>
<g><path style="opacity:1" fill="#dcdcdc" d="M 19.5,16.5 C 19.5,17.5 19.5,18.5 19.5,19.5C 18.5,19.5 17.5,19.5 16.5,19.5C 17.1667,18.1667 18.1667,17.1667 19.5,16.5 Z"/></g>
</svg>
